<?xml version="1.0" standalone="no"?><!DOCTYPE svg PUBLIC "-//W3C//DTD SVG 1.1//EN" "http://www.w3.org/Graphics/SVG/1.1/DTD/svg11.dtd"><svg xmlns:xlink="http://www.w3.org/1999/xlink" xmlns="http://www.w3.org/2000/svg" version="1.1" width="200" height="200" viewBox="0 0 200 200"><defs><style type="text/css"><![CDATA[
@font-face {
  font-family: "ifont";
  src: url("//at.alicdn.com/t/font_1442373896_4754455.eot?#iefix") format("embedded-opentype"), url("//at.alicdn.com/t/font_1442373896_4754455.woff") format("woff"), url("//at.alicdn.com/t/font_1442373896_4754455.ttf") format("truetype"), url("//at.alicdn.com/t/font_1442373896_4754455.svg#ifont") format("svg");
}

]]></style></defs><g class="transform-group"><g transform="scale(0.1953125, 0.1953125)"><path d="M512 64c247.039 0 448 200.961 448 448s-200.961 448-448 448-448-200.961-448-448 200.961-448 448-448zM512 896c211.745 0 384-172.255 384-384s-172.255-384-384-384-384 172.255-384 384 172.255 384 384 384zM355.168 522.848c0.033 0.127 0.192 0.256 0.256 0.385 1.536 3.616 3.649 7.072 6.592 10.048 0.033 0.033 0.064 0.033 0.096 0.064 0.033 0.033 0.033 0.064 0.064 0.096l158.912 159.359c12.48 12.513 32.736 12.576 45.248 0.064 12.513-12.48 12.544-32.735 0.064-45.248l-136.288-136.672 137.408-135.905c12.576-12.447 12.673-32.672 0.256-45.248-6.239-6.335-14.496-9.504-22.751-9.504-8.127 0-16.256 3.103-22.497 9.248l-160.255 158.496c-9.504 9.379-11.873 23.204-7.104 34.819z" fill="#272636"></path></g></g></svg>